<svg width="48" height="48" viewBox="0 0 48 48" fill="none" xmlns="http://www.w3.org/2000/svg">
<path d="M46.08 4.32H36V0.48C36 0.216 35.784 0 35.52 0H32.16C31.896 0 31.68 0.216 31.68 0.48V4.32H16.32V0.48C16.32 0.216 16.104 0 15.84 0H12.48C12.216 0 12 0.216 12 0.48V4.32H1.92C0.858 4.32 0 5.178 0 6.24V46.08C0 47.142 0.858 48 1.92 48H46.08C47.142 48 48 47.142 48 46.08V6.24C48 5.178 47.142 4.32 46.08 4.32ZM43.68 43.68H4.32V20.88H43.68V43.68ZM4.32 16.8V8.64H12V11.52C12 11.784 12.216 12 12.48 12H15.84C16.104 12 16.32 11.784 16.32 11.52V8.64H31.68V11.52C31.68 11.784 31.896 12 32.16 12H35.52C35.784 12 36 11.784 36 11.52V8.64H43.68V16.8H4.32Z" fill="#3E012F"/>
</svg>
