<svg width="24" height="24" viewBox="0 0 24 24" fill="none" xmlns="http://www.w3.org/2000/svg">
<path d="M0 0.8C0 0.587827 0.0842881 0.384344 0.234322 0.234315C0.384356 0.0842854 0.587845 0 0.800025 0H3.2001C3.37855 4.92984e-05 3.55187 0.0597611 3.69248 0.16964C3.8331 0.279518 3.93294 0.433254 3.97612 0.6064L4.62414 3.2H23.2007C23.3182 3.20011 23.4342 3.22608 23.5405 3.27608C23.6468 3.32608 23.7408 3.39887 23.8158 3.48929C23.8908 3.5797 23.9449 3.68552 23.9744 3.79923C24.0039 3.91294 24.008 4.03174 23.9863 4.1472L21.5863 16.9472C21.5519 17.1305 21.4547 17.2961 21.3112 17.4153C21.1678 17.5345 20.9872 17.5998 20.8006 17.6H6.4002C6.21368 17.5998 6.03309 17.5345 5.88964 17.4153C5.74619 17.2961 5.64889 17.1305 5.61457 16.9472L3.2161 4.1712L2.57608 1.6H0.800025C0.587845 1.6 0.384356 1.51571 0.234322 1.36569C0.0842881 1.21566 0 1.01217 0 0.8ZM4.96335 4.8L7.06422 16H20.1366L22.2375 4.8H4.96335ZM8.00025 17.6C7.15153 17.6 6.33757 17.9371 5.73744 18.5373C5.1373 19.1374 4.80015 19.9513 4.80015 20.8C4.80015 21.6487 5.1373 22.4626 5.73744 23.0627C6.33757 23.6629 7.15153 24 8.00025 24C8.84897 24 9.66292 23.6629 10.2631 23.0627C10.8632 22.4626 11.2003 21.6487 11.2003 20.8C11.2003 19.9513 10.8632 19.1374 10.2631 18.5373C9.66292 17.9371 8.84897 17.6 8.00025 17.6ZM19.2006 17.6C18.3519 17.6 17.5379 17.9371 16.9378 18.5373C16.3376 19.1374 16.0005 19.9513 16.0005 20.8C16.0005 21.6487 16.3376 22.4626 16.9378 23.0627C17.5379 23.6629 18.3519 24 19.2006 24C20.0493 24 20.8633 23.6629 21.4634 23.0627C22.0635 22.4626 22.4007 21.6487 22.4007 20.8C22.4007 19.9513 22.0635 19.1374 21.4634 18.5373C20.8633 17.9371 20.0493 17.6 19.2006 17.6ZM8.00025 19.2C8.42461 19.2 8.83159 19.3686 9.13165 19.6686C9.43172 19.9687 9.6003 20.3757 9.6003 20.8C9.6003 21.2243 9.43172 21.6313 9.13165 21.9314C8.83159 22.2314 8.42461 22.4 8.00025 22.4C7.57589 22.4 7.16891 22.2314 6.86884 21.9314C6.56877 21.6313 6.4002 21.2243 6.4002 20.8C6.4002 20.3757 6.56877 19.9687 6.86884 19.6686C7.16891 19.3686 7.57589 19.2 8.00025 19.2ZM19.2006 19.2C19.625 19.2 20.0319 19.3686 20.332 19.6686C20.6321 19.9687 20.8006 20.3757 20.8006 20.8C20.8006 21.2243 20.6321 21.6313 20.332 21.9314C20.0319 22.2314 19.625 22.4 19.2006 22.4C18.7762 22.4 18.3693 22.2314 18.0692 21.9314C17.7691 21.6313 17.6005 21.2243 17.6005 20.8C17.6005 20.3757 17.7691 19.9687 18.0692 19.6686C18.3693 19.3686 18.7762 19.2 19.2006 19.2Z" fill="#5B6766"/>
</svg>
