<svg width="44" height="48" viewBox="0 0 44 48" fill="none" xmlns="http://www.w3.org/2000/svg">
<path fill-rule="evenodd" clip-rule="evenodd" d="M10.4332 24C10.4332 17.6708 15.6221 12.5217 22 12.5217C28.3779 12.5217 33.5669 17.6708 33.5669 24C33.5669 30.3292 28.378 35.4783 22 35.4783C15.622 35.4783 10.4332 30.3292 10.4332 24ZM13.5879 24C13.5879 28.6029 17.3615 32.3478 22 32.3478C26.6385 32.3478 30.4122 28.6029 30.4122 24C30.4122 19.397 26.6385 15.6522 22 15.6522C17.3616 15.6522 13.5879 19.397 13.5879 24Z" fill="#3E012F"/>
<path fill-rule="evenodd" clip-rule="evenodd" d="M39.8698 25.2069C39.933 25.2403 39.9961 25.2737 40.0581 25.3092C43.8243 27.4671 45.1193 32.263 42.945 36.0002C41.486 38.5078 38.8293 39.9114 36.1019 39.9116C34.7646 39.9117 33.4108 39.5746 32.1719 38.8647C32.0968 38.8217 32.0234 38.7757 31.9498 38.7303C31.2898 39.1707 30.5984 39.5679 29.8802 39.9195L29.8817 39.9635C29.8841 40.0336 29.8865 40.1038 29.8865 40.1739C29.8865 44.4893 26.3486 48 22 48C17.6514 48 14.1136 44.4893 14.1135 40.1738C14.1135 40.1392 14.1141 40.1045 14.115 40.0698C14.1162 40.0196 14.1181 39.9695 14.1197 39.9193C13.4015 39.5679 12.7102 39.1705 12.0501 38.7301L12.0152 38.7517C11.9532 38.79 11.8913 38.8283 11.8281 38.8645C8.06265 41.0221 3.22962 39.7375 1.05512 36C-1.11919 32.263 0.175573 27.4671 3.94158 25.3093C4.00118 25.2752 4.06194 25.243 4.12264 25.2109L4.16499 25.1884C4.13874 24.7955 4.12398 24.3995 4.12398 24C4.12398 23.6006 4.13874 23.2046 4.16508 22.8116L4.12642 22.7912C4.06452 22.7584 4.00261 22.7257 3.94186 22.6909C0.175573 20.5329 -1.11928 15.737 1.05512 12C3.22934 8.26275 8.06201 6.97762 11.8282 9.13529C11.9033 9.17832 11.9766 9.22435 12.0502 9.26971C12.7103 8.82937 13.4016 8.43205 14.1198 8.08049C14.1171 7.99576 14.1136 7.91091 14.1136 7.82607C14.1136 3.51075 17.6514 0 22 0C26.3486 0 29.8865 3.51075 29.8865 7.82607C29.8865 7.89732 29.8841 7.96857 29.8817 8.03991L29.8803 8.08079C30.5985 8.43217 31.2899 8.82955 31.9499 9.26999L31.9803 9.2512C32.0437 9.21204 32.107 9.17285 32.1717 9.13575C35.9377 6.9779 40.7707 8.26323 42.9449 12.0002C45.1193 15.7373 43.8242 20.5331 40.0583 22.6909C39.9992 22.7247 39.9392 22.7565 39.8791 22.7883L39.8349 22.8117C39.8612 23.2045 39.8759 23.6006 39.8759 24.0001C39.8759 24.3995 39.8612 24.7955 39.8349 25.1885L39.8698 25.2069ZM39.269 19.4138C40.9042 17.9639 41.3518 15.5226 40.213 13.5653C39.0723 11.6047 36.7122 10.7693 34.6269 11.4552C36.818 13.6272 38.4445 16.3595 39.269 19.4138ZM26.6321 6.86607C26.1843 4.73568 24.2778 3.13042 22 3.13042C19.7222 3.13042 17.8158 4.73568 17.3679 6.86607C18.8459 6.47211 20.3984 6.26081 22 6.26081C23.6016 6.26081 25.1542 6.47211 26.6321 6.86607ZM9.37347 11.4549C7.30839 10.7712 4.94135 11.581 3.787 13.5653C2.64811 15.5226 3.09585 17.9638 4.731 19.4139C5.55556 16.3594 7.18209 13.6269 9.37347 11.4549ZM4.731 28.5862C3.09585 30.036 2.64811 32.4773 3.787 34.4347C4.94296 36.4216 7.31162 37.2278 9.37356 36.5452C7.18209 34.3732 5.55565 31.6407 4.731 28.5862ZM17.3679 41.1339C17.8157 43.2643 19.7222 44.8696 22 44.8696C24.2777 44.8696 26.1843 43.2643 26.6321 41.1339C25.1541 41.5279 23.6016 41.7392 22 41.7392C20.3984 41.7392 18.8459 41.5278 17.3679 41.1339ZM7.27864 24C7.27864 32.0552 13.8827 38.6087 22 38.6087C30.1173 38.6087 36.7214 32.0553 36.7214 24C36.7214 15.9447 30.1174 9.39132 22 9.39132C13.8826 9.39132 7.27864 15.9448 7.27864 24ZM34.6269 36.5448C36.7124 37.2309 39.0724 36.3953 40.213 34.4347C41.3518 32.4774 40.9042 30.0362 39.2692 28.5862C38.4446 31.6405 36.8182 34.3729 34.6269 36.5448Z" fill="#3E012F"/>
</svg>
