<svg width="48" height="48" viewBox="0 0 48 48" fill="none" xmlns="http://www.w3.org/2000/svg">
<path d="M48 23.9987C48 20.3697 45.4812 17.3174 42.1002 16.4997C42.8346 15.3016 43.227 13.9205 43.2277 12.48C43.2285 10.4179 42.4266 8.48136 40.9703 7.02576C39.5139 5.56956 37.5774 4.7669 35.516 4.7669C34.0754 4.7669 32.6945 5.15911 31.4955 5.89357C30.6747 2.51573 27.6248 0 23.9981 0C20.3714 0 17.3208 2.51563 16.4999 5.89357C15.3025 5.16 13.9231 4.76838 12.4832 4.76838C10.4227 4.76838 8.48532 5.57104 7.02745 7.02822C5.56958 8.4853 4.7675 10.4227 4.7675 12.4831C4.76829 13.9238 5.1607 15.3041 5.89516 16.5014C2.51653 17.3206 4.44927e-07 20.3714 4.44927e-07 23.998C-0.000689554 26.0587 0.801188 27.9959 2.25827 29.4523C3.27602 30.47 4.52827 31.1682 5.89358 31.4963C5.16001 32.6938 4.76839 34.0723 4.76839 35.5106C4.76839 37.5719 5.57184 39.5101 7.02991 40.9655C8.48532 42.4234 10.4219 43.227 12.4824 43.227C13.9223 43.227 15.3017 42.8346 16.4991 42.1018C17.3175 45.4821 20.369 48 23.9981 48C27.6263 48 30.6772 45.482 31.4964 42.1024C32.6952 42.8362 34.0762 43.2284 35.5177 43.2284C37.5774 43.2284 39.514 42.4273 40.9703 40.9709C43.5329 38.406 43.9103 34.4678 42.1002 31.4977C43.4663 31.1698 44.7202 30.4707 45.7394 29.4523C47.198 27.995 48.0009 26.0578 48 23.9987ZM30.9784 11.3093C31.7937 9.90315 32.1986 9.43326 32.332 9.2991C34.0346 7.59934 36.9984 7.59796 38.6979 9.2991C39.5468 10.1472 40.0145 11.2763 40.0138 12.4785C40.0131 13.6814 39.5446 14.8129 38.6908 15.6666C38.5582 15.7992 38.0977 16.1977 36.6789 17.0216L31.2405 20.1791C30.4676 18.7181 29.2796 17.53 27.8178 16.7581L30.9784 11.3093ZM23.9981 3.21401C26.4792 3.21401 28.4981 5.23294 28.4981 7.71398C28.4981 7.90314 28.4526 8.5128 28.0345 10.0907L26.4204 16.1813C25.6506 15.9427 24.8486 15.7772 24.0004 15.7772C23.1483 15.7772 22.3425 15.9435 21.5696 16.1844L19.9602 10.0893C19.5577 8.56386 19.4974 7.94641 19.4974 7.71408C19.4973 5.23294 21.5161 3.21401 23.9981 3.21401ZM9.29991 9.30058C11.0009 7.60102 13.9647 7.60023 15.6658 9.30137C15.8298 9.46549 16.2244 9.94405 17.0177 11.3078L20.1877 16.7556C18.7219 17.5292 17.53 18.721 16.7564 20.1876L11.3117 17.0193C9.89922 16.1976 9.43633 15.7983 9.30208 15.664C8.45072 14.8143 7.98231 13.6844 7.98152 12.4823C7.98152 11.2812 8.45003 10.1511 9.29991 9.30058ZM4.53073 27.1798C3.68095 26.33 3.21333 25.201 3.21402 23.9988C3.21402 21.5179 5.23296 19.4988 7.714 19.4988C7.94781 19.4988 8.56861 19.5593 10.0931 19.9618L16.1852 21.5712C15.9451 22.344 15.7788 23.1491 15.7788 24.0005C15.7788 24.8495 15.9443 25.6529 16.1836 26.4235L10.0915 28.0336C8.56536 28.4368 7.94554 28.4972 7.71252 28.4972C6.51034 28.4972 5.38052 28.0295 4.53073 27.1798ZM17.0194 36.6812C16.1963 38.0981 15.7984 38.5597 15.6643 38.6931C13.9647 40.3943 11.0033 40.3956 9.30218 38.6931C8.45082 37.8425 7.98241 36.7125 7.98241 35.5112C7.98241 34.3099 8.45082 33.18 9.30297 32.3295C9.46768 32.1647 9.94802 31.7693 11.3109 30.9759L16.7533 27.8051C17.5255 29.2717 18.7157 30.4644 20.1807 31.2396L17.0194 36.6812ZM23.9981 44.786C21.5162 44.786 19.4974 42.767 19.4974 40.286C19.4974 40.0522 19.5578 39.4322 19.9627 37.899L21.5697 31.814C22.3435 32.0549 23.1484 32.2212 24.0005 32.2212C24.8511 32.2212 25.6555 32.0548 26.4276 31.8156L28.0329 37.8973C28.4377 39.4314 28.4982 40.0521 28.4982 40.2859C28.4981 42.7671 26.4792 44.786 23.9981 44.786ZM38.6971 38.6994C36.9984 40.3965 34.03 40.3919 32.3351 38.6994C32.2001 38.5636 31.7977 38.096 30.9761 36.6804L27.8187 31.2404C29.2804 30.4675 30.4693 29.2796 31.2414 27.8178L36.6806 30.976C38.0978 31.7991 38.5638 32.2 38.6963 32.3328C40.4499 34.0887 40.4499 36.9441 38.6971 38.6994ZM43.4679 27.1789C42.6173 28.0295 41.4858 28.4979 40.2828 28.4979C40.0945 28.4979 39.4856 28.4525 37.8983 28.0326L31.8179 26.4241C32.0574 25.6535 32.2229 24.85 32.2229 24.0003C32.2229 23.1529 32.0582 22.3509 31.8195 21.582L37.899 19.9641C39.477 19.5444 40.0945 19.4987 40.2868 19.4987C42.7678 19.4987 44.7861 21.5178 44.7861 23.9996C44.7869 25.2001 44.3185 26.3292 43.4679 27.1789Z" fill="#3E012F"/>
</svg>
